<svg width="26" height="26" viewBox="0 0 26 26" fill="none" xmlns="http://www.w3.org/2000/svg">
<path d="M8.79325 5.70439V24.0028C8.79388 24.1468 8.76462 24.2892 8.70746 24.4205C8.6503 24.5518 8.56657 24.6689 8.46193 24.7639C8.35728 24.8588 8.23416 24.9294 8.10087 24.971C7.96758 25.0125 7.82723 25.0239 7.68929 25.0045C5.83276 24.729 4.13447 23.7704 2.90583 22.3045C1.67719 20.8386 1.00056 18.9637 1 17.0236V6.83233C1.00057 6.27133 1.17333 5.725 1.49338 5.27209C1.81342 4.81919 2.26422 4.48311 2.7808 4.31228C3.09153 4.21059 3.40679 4.15799 3.71753 4.27371C3.97289 4.36955 4.22374 4.47592 4.47346 4.58579C4.72318 4.69566 4.95708 4.76112 5.20341 4.84411C5.53561 4.96099 5.86895 5.05918 6.20567 5.15269C6.5424 5.24619 6.9085 5.33737 7.2633 5.41685C7.61811 5.49633 8.00003 5.57114 8.36726 5.63192C8.5119 5.65997 8.65314 5.68218 8.79325 5.70439Z" fill="#CEEF0A" stroke="white" stroke-width="0.0297521" stroke-miterlimit="10"/>
<path d="M24.9999 7.20047V17.0188C25.0004 18.9598 24.3243 20.8358 23.0955 22.3027C21.8668 23.7695 20.1679 24.7288 18.3106 25.0045C18.1728 25.0235 18.0326 25.0118 17.8996 24.9701C17.7665 24.9284 17.6436 24.8578 17.5391 24.7629C17.4346 24.668 17.351 24.551 17.2939 24.4199C17.2367 24.2888 17.2074 24.1466 17.2078 24.0028V5.65173C17.943 5.52394 18.6737 5.36147 19.3999 5.16432C19.897 5.0264 20.3897 4.87211 20.8744 4.69678C21.2937 4.54249 21.7095 4.31573 22.1592 4.24677C22.6428 4.17313 23.114 4.34379 23.531 4.58925C23.9772 4.85262 24.3482 5.23346 24.6062 5.6931C24.8642 6.15274 25 6.67481 24.9999 7.20631V7.20047Z" fill="#CEEF0A" stroke="white" stroke-width="0.0297521" stroke-miterlimit="10"/>
<path d="M17.2071 5.64746V12.3216L13.9935 17.1712C13.8869 17.3322 13.744 17.464 13.5772 17.555C13.4103 17.646 13.2245 17.6936 13.0358 17.6936C12.8472 17.6936 12.6614 17.646 12.4945 17.555C12.3277 17.464 12.1848 17.3322 12.0782 17.1712L8.79346 12.2071V5.70474C10.1276 5.90772 11.4744 6.00851 12.8229 6.0063C14.2912 6.00906 15.7574 5.88905 17.2071 5.64746Z" fill="#CEEF0A" stroke="white" stroke-width="0.0297521" stroke-miterlimit="10"/>
<path d="M6.01017 2.46066C6.3808 1.77688 7.3356 1.22635 7.91979 0.991413C9.13403 0.496114 10.41 0.18129 11.7096 0.0563297C13.7661 -0.130687 15.9854 0.146331 17.9243 0.911931C18.7978 1.26259 20.66 2.26079 20.0317 3.49744C19.8621 3.81945 19.5787 4.06112 19.2407 4.17187C17.9899 4.59265 16.6769 4.7411 15.365 4.81707C13.6455 4.91993 11.9218 4.91993 10.2023 4.81707C9.15482 4.75396 8.10849 4.6359 7.09605 4.34252C6.74227 4.24298 6.42372 4.04007 6.17854 3.75809C5.77853 3.31276 5.79209 2.86392 6.01017 2.46066Z" fill="white" stroke="white" stroke-width="0.00991736" stroke-miterlimit="10"/>
</svg>
