<svg width="87" height="23" viewBox="0 0 87 23" fill="none" xmlns="http://www.w3.org/2000/svg">
<path d="M2 9.77344C0.89543 9.77344 0 10.6689 0 11.7734C0 12.878 0.89543 13.7734 2 13.7734V9.77344ZM86.2137 13.1068C86.9947 12.3257 86.9947 11.2212 86.2137 10.4401L77.3333 1.55977C76.5523 0.778717 75.4477 0.778717 74.6667 1.55977L64.453 11.7734L74.6667 21.9871C75.4477 22.7682 76.5523 22.7682 77.3333 21.9871L86.2137 13.1068ZM9.58974 13.7734C10.6943 13.7734 11.5897 12.878 11.5897 11.7734C11.5897 10.6689 10.6943 9.77344 9.58974 9.77344V13.7734ZM19.0769 9.77344C17.9724 9.77344 17.0769 10.6689 17.0769 11.7734C17.0769 12.878 17.9724 13.7734 19.0769 13.7734V9.77344ZM34.2564 13.7734C35.361 13.7734 36.2564 12.878 36.2564 11.7734C36.2564 10.6689 35.361 9.77344 34.2564 9.77344V13.7734ZM43.7436 9.77344C42.639 9.77344 41.7436 10.6689 41.7436 11.7734C41.7436 12.878 42.639 13.7734 43.7436 13.7734V9.77344ZM58.9231 13.7734C60.0276 13.7734 60.9231 12.878 60.9231 11.7734C60.9231 10.6689 60.0276 9.77344 58.9231 9.77344V13.7734ZM68.4103 9.77344C67.3057 9.77344 66.4103 10.6689 66.4103 11.7734C66.4103 12.878 67.3057 13.7734 68.4103 13.7734V9.77344ZM2 13.7734H9.58974V9.77344H2V13.7734ZM19.0769 13.7734H34.2564V9.77344H19.0769V13.7734ZM43.7436 13.7734H58.9231V9.77344H43.7436V13.7734ZM68.4103 13.7734H76V9.77344H68.4103V13.7734Z" fill="#A3DC2F"/>
</svg>
