<svg width="529" height="88" viewBox="0 0 529 88" fill="none" xmlns="http://www.w3.org/2000/svg">
<path d="M9.66667 86.511C10.4477 87.2921 11.5523 87.2921 12.3333 86.511L21.2137 77.6307C21.9947 76.8496 21.9947 75.7451 21.2137 74.964L11 64.7504L0.786328 74.964C0.00527954 75.7451 0.00527954 76.8496 0.786328 77.6307L9.66667 86.511ZM529 2.29785C529 1.19328 528.105 0.297852 527 0.297852C525.895 0.297852 525 1.19328 525 2.29785H529ZM13 72.7443C13 71.6398 12.1046 70.7443 11 70.7443C9.89543 70.7443 9 71.6398 9 72.7443H13ZM9 68.303C9 69.4076 9.89543 70.303 11 70.303C12.1046 70.303 13 69.4076 13 68.303H9ZM15.5148 54.5254C16.029 53.5478 15.6533 52.3385 14.6757 51.8243C13.6981 51.3102 12.4887 51.6859 11.9746 52.6635L15.5148 54.5254ZM22.9135 41.7246C21.9359 42.2387 21.5602 43.4481 22.0743 44.4257C22.5885 45.4033 23.7978 45.779 24.7754 45.2648L22.9135 41.7246ZM43 42.75C44.1046 42.75 45 41.8546 45 40.75C45 39.6454 44.1046 38.75 43 38.75V42.75ZM53 38.75C51.8954 38.75 51 39.6454 51 40.75C51 41.8546 51.8954 42.75 53 42.75V38.75ZM69 42.75C70.1046 42.75 71 41.8546 71 40.75C71 39.6454 70.1046 38.75 69 38.75V42.75ZM79 38.75C77.8954 38.75 77 39.6454 77 40.75C77 41.8546 77.8954 42.75 79 42.75V38.75ZM95 42.75C96.1046 42.75 97 41.8546 97 40.75C97 39.6454 96.1046 38.75 95 38.75V42.75ZM105 38.75C103.895 38.75 103 39.6454 103 40.75C103 41.8546 103.895 42.75 105 42.75V38.75ZM121 42.75C122.105 42.75 123 41.8546 123 40.75C123 39.6454 122.105 38.75 121 38.75V42.75ZM131 38.75C129.895 38.75 129 39.6454 129 40.75C129 41.8546 129.895 42.75 131 42.75V38.75ZM147 42.75C148.105 42.75 149 41.8546 149 40.75C149 39.6454 148.105 38.75 147 38.75V42.75ZM157 38.75C155.895 38.75 155 39.6454 155 40.75C155 41.8546 155.895 42.75 157 42.75V38.75ZM173 42.75C174.105 42.75 175 41.8546 175 40.75C175 39.6454 174.105 38.75 173 38.75V42.75ZM183 38.75C181.895 38.75 181 39.6454 181 40.75C181 41.8546 181.895 42.75 183 42.75V38.75ZM199 42.75C200.105 42.75 201 41.8546 201 40.75C201 39.6454 200.105 38.75 199 38.75V42.75ZM209 38.75C207.895 38.75 207 39.6454 207 40.75C207 41.8546 207.895 42.75 209 42.75V38.75ZM225 42.75C226.105 42.75 227 41.8546 227 40.75C227 39.6454 226.105 38.75 225 38.75V42.75ZM235 38.75C233.895 38.75 233 39.6454 233 40.75C233 41.8546 233.895 42.75 235 42.75V38.75ZM251 42.75C252.105 42.75 253 41.8546 253 40.75C253 39.6454 252.105 38.75 251 38.75V42.75ZM261 38.75C259.895 38.75 259 39.6454 259 40.75C259 41.8546 259.895 42.75 261 42.75V38.75ZM277 42.75C278.105 42.75 279 41.8546 279 40.75C279 39.6454 278.105 38.75 277 38.75V42.75ZM287 38.75C285.895 38.75 285 39.6454 285 40.75C285 41.8546 285.895 42.75 287 42.75V38.75ZM303 42.75C304.105 42.75 305 41.8546 305 40.75C305 39.6454 304.105 38.75 303 38.75V42.75ZM313 38.75C311.895 38.75 311 39.6454 311 40.75C311 41.8546 311.895 42.75 313 42.75V38.75ZM329 42.75C330.105 42.75 331 41.8546 331 40.75C331 39.6454 330.105 38.75 329 38.75V42.75ZM339 38.75C337.895 38.75 337 39.6454 337 40.75C337 41.8546 337.895 42.75 339 42.75V38.75ZM355 42.75C356.105 42.75 357 41.8546 357 40.75C357 39.6454 356.105 38.75 355 38.75V42.75ZM365 38.75C363.895 38.75 363 39.6454 363 40.75C363 41.8546 363.895 42.75 365 42.75V38.75ZM381 42.75C382.105 42.75 383 41.8546 383 40.75C383 39.6454 382.105 38.75 381 38.75V42.75ZM391 38.75C389.895 38.75 389 39.6454 389 40.75C389 41.8546 389.895 42.75 391 42.75V38.75ZM407 42.75C408.105 42.75 409 41.8546 409 40.75C409 39.6454 408.105 38.75 407 38.75V42.75ZM417 38.75C415.895 38.75 415 39.6454 415 40.75C415 41.8546 415.895 42.75 417 42.75V38.75ZM433 42.75C434.105 42.75 435 41.8546 435 40.75C435 39.6454 434.105 38.75 433 38.75V42.75ZM443 38.75C441.895 38.75 441 39.6454 441 40.75C441 41.8546 441.895 42.75 443 42.75V38.75ZM459 42.75C460.105 42.75 461 41.8546 461 40.75C461 39.6454 460.105 38.75 459 38.75V42.75ZM469 38.75C467.895 38.75 467 39.6454 467 40.75C467 41.8546 467.895 42.75 469 42.75V38.75ZM485 42.75C486.105 42.75 487 41.8546 487 40.75C487 39.6454 486.105 38.75 485 38.75V42.75ZM495 38.75C493.895 38.75 493 39.6454 493 40.75C493 41.8546 493.895 42.75 495 42.75V38.75ZM515.087 39.7754C516.064 39.2613 516.44 38.0519 515.926 37.0743C515.412 36.0967 514.202 35.721 513.225 36.2352L515.087 39.7754ZM522.485 26.9746C521.971 27.9522 522.347 29.1615 523.324 29.6757C524.302 30.1898 525.511 29.8141 526.025 28.8365L522.485 26.9746ZM529 12.3032C529 11.1986 528.105 10.3032 527 10.3032C525.895 10.3032 525 11.1986 525 12.3032H529ZM525 6.74467C525 7.84924 525.895 8.74467 527 8.74467C528.105 8.74467 529 7.84924 529 6.74467H525ZM13 76.2974V72.7443H9V76.2974H13ZM13 68.303V64.75H9V68.303H13ZM13 64.75C13 61.0549 13.9094 57.5781 15.5148 54.5254L11.9746 52.6635C10.0744 56.2765 9 60.3907 9 64.75H13ZM24.7754 45.2648C27.8281 43.6594 31.3049 42.75 35 42.75V38.75C30.6407 38.75 26.5265 39.8244 22.9135 41.7246L24.7754 45.2648ZM35 42.75H43V38.75H35V42.75ZM53 42.75H69V38.75H53V42.75ZM79 42.75H95V38.75H79V42.75ZM105 42.75H121V38.75H105V42.75ZM131 42.75H147V38.75H131V42.75ZM157 42.75H173V38.75H157V42.75ZM183 42.75H199V38.75H183V42.75ZM209 42.75H225V38.75H209V42.75ZM235 42.75H251V38.75H235V42.75ZM261 42.75H277V38.75H261V42.75ZM287 42.75H303V38.75H287V42.75ZM313 42.75H329V38.75H313V42.75ZM339 42.75H355V38.75H339V42.75ZM365 42.75H381V38.75H365V42.75ZM391 42.75H407V38.75H391V42.75ZM417 42.75H433V38.75H417V42.75ZM443 42.75H459V38.75H443V42.75ZM469 42.75H485V38.75H469V42.75ZM495 42.75H503V38.75H495V42.75ZM503 42.75C507.359 42.75 511.473 41.6756 515.087 39.7754L513.225 36.2352C510.172 37.8406 506.695 38.75 503 38.75V42.75ZM526.025 28.8365C527.926 25.2235 529 21.1093 529 16.75H525C525 20.4451 524.091 23.9219 522.485 26.9746L526.025 28.8365ZM529 16.75V12.3032H525V16.75H529ZM529 6.74467V2.29785H525V6.74467H529Z" fill="#A3DC2F"/>
</svg>
